<svg xmlns="http://www.w3.org/2000/svg" width="400" height="128" fill="#000"><path d="M48.5082.645108C36.449 1.75089 23.9725 11.0144 19.2155 22.4269c-1.2101 2.9-1.7943 5.1116-2.7331 10.3693l-.8346 4.9864c0 .2295 11.1204.2712 58.2099.2712h58.2103l.104-.4798c.063-.2504 1.523-8.3873 3.234-18.0889l3.255-18.3184.125-.667639-44.7113.041728-45.5665.104319zM150.219.645111c0 .104319-1.46 8.428959-3.234 18.526989l-3.234 18.6105c0 .2086 11.788.2712 58.21.2712h58.21l.104-.4798c.209-.8763 1.336-7.5527 1.544-9.1801.543-3.8806.146-8.4081-1.043-11.9341-1.231-3.672-3.088-6.55118-6.071-9.38865-3.318-3.19216-6.76-4.98644-11.642-6.092219-1.44-.33382-5.216-.354684-47.194-.417275-25.12-.041728-45.65 0-45.65.083455zm123.347.041724c.041.125183 4.005 8.575005 8.825 18.777365l8.763 18.5896h38.848 38.848l14.542-17.5881 15.586-18.7774L400 .499061h-21.907-21.886L344.064 15.208l-12.393 14.709c-.146 0-3.442-6.6138-7.344-14.709L317.275.499061h-21.907l-21.802.187774zM297.309 50.8225l3.4 7.2605 2.671 6.1966c-.084.146-11.788 14.4168-25.996 31.692L251.45 127.601c-.042.084 9.681.167 21.594.167h21.677l12.185-14.709 12.476-14.6672c.146.0418 1.315 2.2112 2.567 4.8612l7.01 14.646 4.715 9.869h21.865l21.886-.146c0-.083-6.718-14.354-14.917-31.713L347.59 64.0918c0-.146 2.587-3.4425 5.738-7.3232l5.737-7.1562c0-.0418-14.02-.0835-31.17-.0835h-31.191l.605 1.2936zm-284.0396.5007c-.6886 8.2829 1.5021 15.0219 6.6138 20.2587 3.7554 3.8598 8.7002 6.2591 14.3334 6.9476 1.1266.1252 10.9326.2087 27.3941.2087l25.725.2712c.0417.146-.3547 2.7123-.8971 5.6958l-1.0224 5.4037-39.5159.1043-39.51599.1043-3.17129 18.5685L0 127.622c0 .083 20.4882.125 45.5456.083l45.5247-.062 2.0864-.459c4.4857-1.023 8.3243-2.65 11.9963-5.049 8.221-5.404 13.729-12.79 15.94-21.386.167-.688 1.169-6.0918 2.212-11.9962 1.669-9.3887 1.94-11.1413 2.024-13.8953.167-4.8195-.543-8.429-2.421-12.1427-3.296-6.5095-8.929-10.7866-16.503-12.4974-1.439-.3338-5.216-.3547-47.2771-.4173l-45.7125-.0626-.146 1.5857zM134.905 88.2729l-6.739 39.0151-.104.48h18.673 18.673l.104-.48c.063-.25 2.003-11.162 4.319-24.244l4.444-24.0555c.146-.1877 5.55-.2503 25.683-.2503l27.353-.2087c7.406-.8345 14.5-4.3188 20.425-10.0146 4.924-4.736 7.97-9.7433 9.806-16.1485.292-1.0015.543-2.0238.543-2.2324 0-.3965-1.294-.3965-58.273-.3965h-58.251l-6.656 38.5354z"/></svg>
