<svg xmlns="http://www.w3.org/2000/svg" width="1333.333373069763" height="1333.333373069763" viewBox="0 0 1000 1000" preserveAspectRatio="xMidYMid meet"><path d="M212.6 149.6c-1.4 1.3-1.6 3.9-1.4 16.2.3 12.8.5 14.7 1.9 14.7.9 0 7.6-6.2 14.8-13.8 17.4-18.1 17.4-18.1-.6-18.5-11-.2-13.4.1-14.7 1.4zm77.8.1c-1.6.8-6 4.4-9.9 8.1l-16 15.1L239 197l-22 20.7-5.5 5.2-.5 15.3c-.6 17.4-.4 18.8 2 18.8.9 0 10.9-9.8 22.6-22.2l31.8-33.8c44-46.2 45.6-48 45.6-50.1 0-2.3.7-2.1-10.7-2.4-6.5-.2-9.9.1-11.9 1.2zm76-.1c-1.6.8-7.2 5.7-12.4 10.8s-17.6 16.8-27.5 26.1L258 251c-1.4 1.4-7.9 7.6-14.5 13.7l-22.2 20.9-10.3 9.9-.1 17v18.7c.2 3.7 4.1 1.6 11.4-6l64.3-68.2 32.4-34.5 25-26.5 36.8-38.8c4.4-4.7 5.4-7.8 2.5-8.5-4.1-1.1-14.1-.5-16.9.9z"/><path d="M441.3 150.2c-1.7 1.3-12 10.9-23 21.4l-35.8 33.9L366 221c-.3.3-8.1 7.7-17.5 16.5l-27.5 26-33.5 31.5-31.5 29.6-25 23.5-18.3 17.6c-1.6 1.9-1.7 4.3-1.5 23 .3 18.5.5 20.8 1.9 20.8 1.5 0 11.2-10 54.3-56l39.6-42 58-61.5 23.5-25 24.6-26 23.9-25.5 13.9-14.7c8-8.5 7.9-10.2-.4-10.6-5-.2-6.5.1-9.2 2zm78.5-.9c-2.3 1-17.3 14.8-52.3 47.8l-38 35.9-46 43.4L353 305l-25.5 24-62 58.5-44.2 42-10.3 10v23.2c0 21.8.1 23.3 1.8 23.3 1.1 0 9.5-8.2 20.3-19.7L255 443l50-53 30.8-32.7 15.9-17 17.7-18.8 22.7-24 26.4-28 25-26.5 31-33 38.9-41.4c7.8-8.2 14.5-15.5 14.9-16.3 2.1-3.5-3.2-5.4-8.5-3zm65 9.3L567 175.4l-25.5 24.1-26.5 25-33 31-23.4 22c-1.2 1.2-5.9 5.6-10.6 10l-16 15-77 72.4-23.9 22.6-36.1 34-18 17-18 17-24.5 23.1-19.5 18.2-3.5 3-.5 24.9c-.3 13.6-.3 25.4-.1 26 .9 3.2 4.8.3 16.7-12.4l56.9-60.3 73-77.5 48-51 33-35 23.1-24.5 24-25.5 16.9-18c1.1-1.1 8.3-8.8 16-17l23.6-25c34.7-36.3 55-58.6 54.7-60.2-.7-4-4.6-2.6-12 4.3zm59.5 15.6l-39.9 37.7-35.4 33.5-46.5 43.6-27 25.6-43.4 40.9-42 39.5-34.1 32-25.4 24-17.1 16-18.6 17.5-55.4 52.2c-18.5 17-46.8 44.1-47.7 45.6-1.1 2.1-1.1 54.8 0 55.9 1.3 1.3 4.5-.5 7.2-3.9 1.2-1.6 4.9-5.7 8.4-9.3l30.1-32 32.4-34.5 16-17c4-4.4 11.5-12.3 16.5-17.5l23.6-25 23.6-25 24.4-26 25.4-27c5.6-5.7 12.8-13.4 16-17l22.5-24 56.6-60 39.9-42.5 24.5-26L603 226l24-25.4c3.6-3.9 11.9-12.6 18.4-19.3 6.6-6.8 12.3-12.8 12.7-13.5.9-1.5 0-3.8-1.5-3.8-.6 0-6.2 4.6-12.3 10.2z"/><path d="M706.4 188.2c-4.8 3.6-40.2 36.7-81.4 76.3l-28 26.4-23 21.6-34 32-52 48.9-41 38.6-25 23.6c-5.2 5.1-13.1 12.5-17.5 16.5l-27 25.3-34 32-24.5 23.2-83.8 78.9c-4.2 3.8-11.3 10.5-15.7 14.7l-8 7.7-.5 27.4c-.6 30.2-.3 33.2 2.3 33.2.9 0 10.6-9.5 21.9-21.6L399.9 518l22.6-24 16-17 16-17 17.5-18.5 23.5-25 31-33 58.5-62 30.4-32.5 67.7-71.5c22.8-24 29.3-31.5 27.1-31.5-.5 0-2.2 1-3.8 2.2zm35.1 38.6c-4.3 3.6-18.5 16.8-31.5 29.2l-39 37-25 23.5-24 22.5-44 41.5-14.5 13.6-9.5 8.9-11.6 11-23.9 22.6-42.5 39.9-36.5 34.4-24.5 23.2-51 48-51 47.9-23.5 22.1-25 23.5-42.7 40.6-10.8 10.4v31.6c0 31.3 0 31.6 2.2 33l2.2 1.5-2.2 3.5c-2.2 3.5-2.2 3.9-2.2 52.9 0 27.2.4 50 .9 50.7.7 1.1 11.2 1.4 57 1.4H325l2.8-2.4c1.5-1.3 7.2-7.1 12.7-12.8l18.6-19.5 16.9-18 49-51.9c26.1-27.5 38-40.8 38.5-42.9.3-1.2.4-12.1.3-24.2-.3-21.6-.3-22-2.4-22.3-1.3-.2-2.9.6-4.1 2-1 1.3-8.6 8.6-16.8 16.3l-25.5 24-41.9 39.5-42.9 40.5c-30.5 28.9-32.9 31.1-33.9 30.1-1.4-1.4 2.7-6.3 22.3-26.7l32.4-34 20.5-21.9 16.1-17 33.4-35.5 54.9-58.5 74.1-78.5 14.6-15.5c3.7-4.1 8-8.6 9.4-10s8.8-9.3 16.6-17.5l72.4-77 14.5-15.5 16-17 17-18.1 46.5-49.4 53.3-56.5 9.2-10.2c3.1-3.2 1.5-4.9-1.8-2-9 7.9-19.2 17.5-51.7 48.3l-88.5 83.4L626 479l-49.5 46.5-72 68-25 23.5-9 8.4c-1.3 1.5-28.7 27.2-39.1 36.7l-37 34.9-34.1 32c-4.1 3.6-15.2 14.1-36.7 34.5-.6.6-6.3 6-12.6 12L282 803c-23.7 22.6-27.5 26-28.9 26-2.6 0-.5-2.8 10.6-14.3l19.3-20.2 18.1-19 66.8-71L440 628l32.1-34 39.5-42 41.4-44 57-60.5 31-33 30.5-32.5 16.6-17.5 33.6-35.5 52.8-56c2.8-3 7.3-8.4 10.1-12l4.9-6.5-5.4 4.5c-3 2.5-8.4 7.2-12 10.6l-25.6 23.8c-1.1 1.2-9.9 9.5-19.5 18.6l-36 34-25 23.5c-3.6 3.2-10.5 9.7-15.5 14.4L631 402.5l-18 17-24 22.5-35 33-23.8 22.4c-2.9 2.5-10.3 9.5-16.5 15.4l-35.6 33.7c-3 2.7-10.5 9.7-16.5 15.5L441 581.5 415 606l-22.5 21.1c-3.3 3-18.6 17.4-34 32l-53 49.8-26.5 25c-.9.9-4.7 4.5-8.5 8L255 756.5l-20.8 19.8c-11 10.5-15.2 13.5-15.2 10.8 0-1.1 9.6-11.5 37.5-40.7l33-34.9 31-33 25.5-27 25.1-26.5 23.9-25.5c3.5-3.9 14-15.1 23.4-25l57.6-61 38.1-40.5 65.3-69.5 22.6-23.9 58-61.6 15.7-16.7c1.3-1.3 9.8-10.3 19-20.1l25.3-26.7c8.1-8.4 21-22.5 24.8-27 4.7-5.4 5.5-6.5 5.1-6.9-.2-.2-4 2.6-8.4 6.2zm74.5 145L773.5 412l-32 30-16.5 15.6-51.5 48.4-17 16-19 18-50.8 47.8c-33.9 31.2-72.7 68.8-72.5 70.1.3 1.4 3 1.6 20 1.6H554l10.2-11 20.8-22 19-20.1 16.5-17.5 86-91.4 89.9-95.4 41.9-44.8c1.1-1.8.2-4.3-1.5-4.3-.7 0-10.1 8.4-20.8 18.8zm13.5 59L776 481.5 725.5 529l-33 31-43 40.5-37.8 35.4c-9.7 9.1-17.7 17-17.7 17.7 0 .6.7 1.5 1.6 1.8 1.7.7 2.9.5 25.8-3.6l13-2.3 5.6-5.5c5.6-5.6 32.4-33.8 46-48.5l18-19 25.5-27 38.5-41 16.5-17.5 46.2-49.2c9.9-10.5 12.2-14.1 10.9-17.3-1.1-3-4.2-1.3-12.1 6.3zm-25.3 95.5L784.5 545l-16.3 15.5-7.5 7c-.7.6-9.8 9.2-20.2 19l-29.2 27.3c-5.5 5.1-10.3 10.2-10.6 11.3-.5 1.8-.2 2 2.6 1.3 1.8-.3 6.3-2.4 10-4.5 3.8-2.2 7.1-3.9 7.4-3.9s4-2.1 8.2-4.6c33.6-20.5 58.9-45.3 79.8-78.4 7.5-11.9 9.5-15.8 8.8-17-1.4-2.2-4.1-.5-13.3 8.3zM443 794.7l-47.4 44.8c-.6.6-10.6 10-22.1 21l-30.4 28.7c-5.8 5.5-9.1 9.4-8.9 10.4.3 1.6 3.1 1.7 31.6 1.6 17.2-.1 31.8-.5 32.6-.9 1.5-.9 42-43.4 55.7-58.5 4.9-5.3 9.1-10.7 9.4-12s.4-13.1.3-26.3c-.3-23.1-.4-24-2.3-24.2-1.4-.2-7.1 4.6-18.5 15.4zm7.3 64.7c-9.9 9.9-34.7 33.3-37.9 35.9-2.8 2.2-3.1 4.3-.6 5.5.9.5 12.3.8 25.4.7 18-.1 24-.4 25.2-1.4 1.4-1.2 1.6-4.3 1.4-25l-.3-23.6-2.5-.1c-1.9-.1-4.5 1.8-10.7 8z"/></svg>
