<svg xmlns="http://www.w3.org/2000/svg" width="2308" height="2314.667" viewBox="0 0 1731 1736" fill="#177fd4" preserveAspectRatio="xMidYMid meet"><path d="M816 85c-37 1.9-87 8.7-120 16.1l-28.3 6.4c-25.5 5.7-71 20.3-101.2 32.3-38.6 15.4-80.3 35.9-113.5 56-25.6 15.5-57.2 37.1-78.5 53.7-52.2 40.5-95.4 83.6-137.7 137.5-8.5 10.7-33 45.8-42.2 60.3-39.1 61.5-69.8 128.1-89.2 193.7-7.1 23.7-7.8 26.6-14.2 54.5-6.2 26.6-8.3 38.1-12.6 68-13.3 92.3-9.1 187 12.6 281 6.4 27.9 7.1 30.8 14.2 54.5 23.6 79.8 63 159.2 114.2 230.5 15.7 21.8 15.9 22 28.8 38 40 49.2 90.3 97.4 138.8 132.7 58.5 42.8 116.1 74.9 179.3 100 30.2 12 75.7 26.6 101.2 32.3l28.3 6.4c25.5 5.7 64 11.5 99 14.7 26.2 2.5 97.8 2.5 124 0 35-3.2 73.5-9 99-14.7l28.3-6.4c25.5-5.7 71-20.3 101.2-32.3 38.6-15.4 80.3-35.9 113.5-56 25.6-15.5 57.2-37.1 78.5-53.7 52.2-40.5 95.4-83.6 137.7-137.5 8.5-10.7 33-45.8 42.2-60.3 39.1-61.5 69.8-128.1 89.2-193.7 7.1-23.7 7.8-26.6 14.2-54.5 6.2-26.6 8.3-38.1 12.6-68 13.3-92.3 9.1-187-12.6-281-6.4-27.9-7.1-30.8-14.2-54.5-23.6-79.8-63-159.2-114.2-230.5-15.7-21.8-15.9-22-28.8-38-40-49.2-90.3-97.4-138.8-132.7-58.5-42.8-116.1-74.9-179.3-100-30.2-12-75.7-26.6-101.2-32.3l-28.3-6.4c-25.6-5.8-65.2-11.7-98.5-14.6-20-1.8-81.2-2.7-103.5-1.5zm85 26c105 6.5 203.2 32.8 296 79.1 180.5 90.3 317.1 247.9 381.3 439.9 34.1 102 45.9 211.2 34.7 319.7l-2.6 22.1-.6 3-22.7-.5c-46.3-1.1-75 4.5-105 20.4-39.9 21.1-54.2 26-85.6 29.4-32 3.4-70.5-5.2-101.7-22.7-30.6-17.2-63.7-26.4-94.9-26.4h-9.9v-50.5c0-54.9 0-54.8 5.5-57.3 1.9-.9 15.7-1.2 51.3-1.2 46.8 0 48.8-.1 52-2 5.9-3.6 7.2-7.1 7.2-19.8 0-8.5-.4-12.3-1.6-14.9-3.4-7-1.1-6.7-58.1-7.3l-51.2-.5-2.3-2.3c-2.2-2.2-2.3-3-2.6-21.4-.2-13.5 0-20 .9-22.1 2.4-5.6 3-5.7 58.3-5.7h50.5l3.6-3.1c4.5-4 5.8-9 5.3-20.9-.4-11-2.2-15.1-7.8-18.1-3.3-1.8-7.2-1.9-77.1-1.9h-73.6l-3.4 2.3c-7.4 4.9-6.9-5.1-6.9 132.2v123l-8.3 2.9c-8.5 3-15.9 6.5-38.8 18.3-22.5 11.5-42.9 17.3-69.4 19.5-32.6 2.7-67.8-5.6-100.5-23.7-43.3-24-87.7-31-135.5-21.4-17 3.4-32.6 9.2-55 20.5l-20.9 10.6-2.6-3.2c-2.4-3.2-33-46.6-34.5-49-.4-.7 3.3-5.2 9.2-11.3 14.5-14.9 23.7-29.6 30.2-48 10.1-28.7 10.1-58.5 0-87.4-16-45.6-55.6-79.4-102.9-87.9-12.4-2.2-34.4-2.3-46.6-.1-48.6 8.7-89.4 44.3-104.3 91-8.8 27.6-8.7 58.2.4 85.1 2.7 8.2 10.7 25.1 12.9 27.4.7.7 5.6 2.2 10.8 3.2 15.5 3.2 28.8 8.4 53.3 20.9 32.9 16.8 47.8 21.7 73.9 24.2 6.6.6 12.3 1.3 12.6 1.6 1.6 1.5 24.7 46 24.2 46.7-.7 1.2-23.4 0-34.7-1.9-19.8-3.2-38.4-10.2-57.8-21.6-27.1-16.1-49.2-23.8-76.9-26.8-41-4.5-81.6 4.2-115.6 24.8-26.1 15.9-47 22.8-76 25.3-36.9 3.1-73.8-5.6-103.4-24.6-19.4-12.4-46.6-22.1-69.6-24.8-7.5-.9-10.3-1.6-10.7-2.8-.8-2.8-4.4-40.3-5.5-57-1.3-21.2-1.3-66.8 0-88 9.4-151.5 61-292.2 151.6-413 133.2-177.5 338.3-287.9 560.9-301.9 19.1-1.2 71.5-1.2 90.5-.1zM605.5 778.7c9.6 2.1 25.6 10 33.6 16.6 11.9 9.9 21.6 25.1 26 41.2 3 10.8 3.1 28.6.1 39.6-3.7 13.8-12.1 27.8-22.5 37.6-29.8 28.2-75.2 28.4-104.8.6-26.1-24.6-33.1-60.9-17.9-92.9 9.2-19.2 26.1-34.1 46.2-40.8 13.6-4.6 24.8-5.1 39.3-1.9zm993.4 211.9l8.3.6-.6 5.1c-.6 4.9-8.5 45-8.9 45.3-.1.1-13.5.6-29.7 1.2-44.4 1.7-57.6 4.9-94.5 23.2-12.1 6-26.8 12.5-32.7 14.5-39.7 13.2-82.8 12.6-121.6-1.6-4.8-1.7-16.3-7-25.7-11.7-32-15.9-51.4-21.6-83.4-24.2-23.3-1.9-51.9 1.9-76.6 10.1-6.7 2.2-20.8 8.3-32 13.9-34.2 16.9-57.8 23-89.5 23-31-.1-56-6.5-88.4-22.7-19.4-9.7-30-14-43.6-17.7-30.5-8.2-61.2-9.2-92-3-19.6 3.9-34.9 9.5-58.4 21.4-22.6 11.4-34.1 15.6-51.9 19.2-9.9 2-14.1 2.3-36.2 2.3-28-.1-35.7-1.2-56.5-8.1-10.4-3.5-15.7-5.9-40-18.5-40.5-21-91.1-26.3-138.2-14.4-14.7 3.8-25.6 8.2-46.2 18.9-25.4 13.3-38.7 17.8-60.7 21.1-13.6 1.9-41 1.9-54.9 0-23-3.3-36.3-8.1-66-23.8-6.9-3.6-16.7-8.2-21.7-10.1-7.6-2.9-27.9-8.3-38-10.2-1.6-.3-2.5-1.5-3.2-4.2-1.6-5.8-7.9-38.1-8.7-44.1l-.7-5.3 4.4.6c26.1 4 41.6 9.8 68 25.2 27.3 16 52.7 23.5 84.9 25 37.6 1.8 72.8-7.2 104.5-26.6 32.8-20 69.7-28.3 108-24 26.1 2.9 44.6 9.3 69.3 23.9 14.8 8.8 24 13.1 37.6 17.6 36.9 12.4 81.1 12.4 118.1 0 10.4-3.4 24-9.9 37.9-17.9 52-30.2 112.9-32.4 164.3-5.9l24.9 12.8c27.3 14 63.7 21.9 92.4 20 31.7-2.1 58.3-10.1 86.7-26.1 7.2-4.1 16.7-8.9 21.1-10.8 47.4-20.3 100.4-18.8 144.9 4.1l24.9 12.8c27.3 14 63.7 21.9 92.4 20 31.7-2.1 58.3-10.1 86.8-26.2 23-12.9 37.4-18.6 57.1-22.3 18.3-3.5 36.9-4.2 64-2.4zm-10.8 67.3l5.5.6-4.6 16.5-7.9 26.6-3.1 10.1-15.8.6c-36.2 1.4-57.6 7.3-92.7 25.2-25.9 13.2-45.2 19.1-71.1 21.6-35.5 3.5-70.9-4.1-106.5-23-19.9-10.5-39.5-17.2-62.5-21.2-10.4-1.9-16.5-2.3-31.9-2.3-36.4.1-59.1 5.8-98 25-21.3 10.5-31 14.1-47.6 17.8-28.9 6.4-59.1 5.8-87.8-2-13.1-3.5-21.7-7.1-43.6-17.9-28.9-14.3-49.5-20.2-79.2-22.7-37.1-3.1-77.3 5.9-112.1 25.2-17.7 9.8-35 16-54.7 19.6-7.7 1.4-15.1 1.8-32.5 1.8-19.6.1-24-.2-34-2.2-17.4-3.5-31.7-8.6-47.8-17-23.9-12.3-28.1-14.2-40.2-18.3-48.1-16-105-12.5-147.4 9.2l-21.8 11.1c-24.8 12.9-52.9 18.6-85.3 17.5-31.3-1.1-52.6-7-80.5-22.2-14.5-7.9-25.7-12.8-38.7-17l-8.3-2.6-4.1-13.2c-6.8-21.5-12.7-43.2-11.9-43.5 1.6-.6 21.8 5.1 31.4 8.9 5.5 2.2 15.2 6.9 21.5 10.4 30.4 16.9 56.2 24.1 90.2 25.2 25.9.9 48-2.1 69.8-9.3 10.6-3.6 18.9-7.4 42.1-19.5 14.4-7.5 30.3-13 46.9-16.1 9.5-1.8 15.3-2.2 32.6-2.2 22.2 0 30.6.8 46.5 5 14.3 3.7 21.7 6.7 42.5 17.4 21.1 10.9 33.6 15.9 48.8 19.5 48.6 11.6 101.9 4.8 142.4-18.3 31.3-17.8 70.1-26.4 104.5-23.4 27.6 2.5 45.3 7.8 74.3 22.2 11 5.4 25.4 11.7 32 14 37.1 12.7 76.3 14.2 115 4.4 14.7-3.7 26.8-8.6 46.5-18.5 9.6-4.8 22.1-10.3 27.6-12.2 24.2-8.4 50.8-11.9 74.2-9.9 27.8 2.4 45.5 7.7 74.7 22.2 11 5.4 25.4 11.7 32 14 37.7 12.9 77.5 14.2 116.5 3.9 15.8-4.2 26.9-8.7 44.5-17.9 30-15.7 49.5-21.2 80.9-22.9 17.8-1 21.8-1 28.7-.2zm-16.1 70c0 1.8-18.3 47.6-19.5 48.9-.2.2-6.1 1.2-13.3 2.2-24.8 3.6-40.7 8.9-67.5 22.4-21 10.6-35.1 15.9-51.7 19.5-22.1 4.7-46.2 5.1-69.1 1.1-19.9-3.4-37.5-9.6-58.4-20.6-39.4-20.7-82.1-28.5-121.9-22.4-26.8 4.1-41.6 9-70.1 23-11 5.5-23.9 11.2-28.6 12.9-20.7 7.1-45.8 10.8-67 9.7-29.7-1.4-54-8.3-82.4-23.2-39.5-20.8-82.2-28.6-121.9-22.4-29.1 4.5-46.2 10.4-76.5 26.4-23.5 12.5-45.5 18.2-74.1 19.3-34 1.3-62.8-4.9-90-19.5-18.4-9.9-28.1-14.3-40-18.3-30.3-10.1-62.3-12.9-92.4-8-25.2 4.1-44.3 10.7-65.5 22.5-20.2 11.2-37 17.4-57.6 21.2-13.9 2.5-49.8 2.6-63.5.1-21.2-3.9-36.7-9.6-58.2-21.4l-13.6-7.5-5.8-12.6c-6.8-15.2-17.4-41.2-17.4-42.9 0-2.1 10.9 2.6 32.2 13.5 29.8 15.5 48.8 21.1 78.8 23.3 11.3.9 19.1.9 30.4.1 30.5-2.3 48.2-7.5 81.1-24.2 24.4-12.3 35.5-16.5 53.8-20.2 9.9-2 14.1-2.3 35.7-2.3 21.5.1 25.8.4 35 2.3 17.2 3.7 29.6 8.2 46 16.5 26.5 13.6 29.2 14.8 41 18.7 24.2 8 50.7 11.2 77.4 9.1 30.7-2.3 48.2-7.4 79.4-23.3 33.1-16.7 53.6-22.4 84.7-23.5 18.7-.6 33.9 1 51.7 5.6 14.6 3.8 22.4 6.9 46 18.5 10.6 5.2 24.3 11.1 30.3 13.1 13 4.2 31.8 8.2 43 9l14.1 1c9.3.7 31.5-1.3 45.4-4.1 18.5-3.7 34-9.3 57.5-20.9 32.1-15.9 51.7-21.1 82-22.2 18.7-.6 33.9 1 51.7 5.6 14.7 3.8 22.3 6.9 45.5 18.4 20.3 10 37.5 16.3 54 19.6 45.3 9.2 88.3 2.7 133.3-20.1 32-16.2 48.1-21.2 77-23.7 13.6-1.2 19-1.2 19-.2zm-1078.5 68c16 3.3 28.9 8 45.5 16.4 26.2 13.4 28.7 14.6 40.8 18.6 35.9 12 77 13.1 114.7 3.1 14.4-3.8 24.3-7.9 45.5-18.7 33.2-17 60-23.3 94-22 31.1 1.2 51.8 7.1 86.1 24.6 30.7 15.6 59.8 22.6 93.4 22.4 34.7-.2 61.5-7.3 98.5-26.1 31.3-15.9 58.8-22.1 92-20.9 31.3 1.2 51.6 7 87 25 37 18.8 74.1 25.8 112 21.2 27-3.2 45.7-9.2 75.5-24 21.4-10.6 36-16.2 49.5-18.8 13.7-2.8 16-3 16-1.6s-18 36.5-24.5 47.8l-4.4 7.6-8.3 2.9c-4.6 1.7-17.3 7.5-28.3 13.1-29.2 14.8-47.3 20.2-75.6 22.7-23.5 2-50.2-1.5-73.9-9.7-5.3-1.9-18.7-7.9-29.8-13.3-34.6-17.1-62.1-24.1-95-24.2-32.5 0-61 7.3-96.6 25-29.4 14.6-46.7 19.7-74.7 22.2-23.5 2-50.2-1.5-73.9-9.7-5.3-1.9-18.7-7.9-29.8-13.3-28.1-13.9-48.7-20.3-74.4-23.1-39.8-4.4-82 4.4-118.6 24.8-17.8 9.9-38.4 17-58.7 20.3-12 1.9-47.6 1.6-59.5-.6-21-3.8-36.8-9.5-57.3-20.8-31.3-17.3-60.5-24.8-96.2-24.8-35.9 0-64.8 7.5-96.2 24.8-20.5 11.3-37.5 17.4-60.3 21.4-10 1.7-47 1.7-57 0-9.8-1.7-29.6-6.9-32.9-8.7-1.8-.9-6.2-7.3-13.3-19.2-11.9-19.9-22-38.3-21.6-39.5.2-.4 4.3 1.1 9.2 3.3 28.8 13.1 62.6 18.7 95.3 16.1 31.2-2.6 48.3-7.7 80.2-23.9 38-19.5 54.4-23.5 93.6-22.8 17.2.3 24.2.8 32 2.4zm-3 63.2c21.2 2.8 35.5 7.8 64 22.3 12.1 6.2 26.5 12.7 31.9 14.5 43.2 14.2 94.7 12.9 135.1-3.4 4.9-2 15.7-7.2 24-11.5 17.8-9.3 29-13.8 45.1-17.8 17.8-4.5 28.7-5.5 50.2-4.9 30.2.9 49.4 6.1 82.7 22.7 22.2 11.1 37.7 16.6 56.5 20.4 47.5 9.6 91 2.7 137.5-21.5 15.9-8.3 27.5-12.8 43.1-16.7 17.8-4.5 28.7-5.5 50.2-4.9 30.5.9 49.3 6.1 83.7 23.2 29.4 14.6 48.2 20.4 76 23.5 35.3 3.9 74.7-4.1 111.2-22.6 20.9-10.5 19.7-10.1 17.7-6.1-2.9 5.7-22.3 33.7-35.2 51l-12.6 16.8-8.5 2.5c-22 6.8-46.3 9.4-67.9 7.5-27.4-2.4-43.1-7.1-75.2-22.6-37.1-17.9-57.1-23.3-89.5-24.2-38.9-1.1-65.4 5.5-106.5 26.4-45.2 23.2-93 27.2-141 12.1-5.2-1.6-20.1-8.1-33-14.3-37.2-17.9-57.1-23.3-89.8-24.2-25.1-.7-37.7.9-61.8 7.8-13.3 3.8-26 9.1-44.6 18.8-30.9 16.1-58.3 22.2-92.3 20.8-30.9-1.4-53.1-7.6-80.6-22.8-22.4-12.4-41-18.9-64.4-22.9-11.4-1.9-15.6-2.1-36-1.8-18.7.4-25 .9-33.9 2.7-21.5 4.4-37.6 10.7-66.3 26-22.5 12-45.1 17.7-73.8 18.7l-15 .6-3.1-3.9c-12.7-15.7-37.4-49.1-37.4-50.5 0-.3 4.2.3 9.3 1.3 16.2 3.2 36.9 4.4 54.1 3.1 31.1-2.5 48.4-7.6 80.1-23.7 28.5-14.6 42.8-19.6 64-22.4 14.3-2 37.8-2 52 0zm4.5 65.4c19.5 3.2 37.3 9.7 59.5 21.9 31.5 17.2 57.9 23.9 95 23.9 37.8 0 57.9-5.1 96-24.3 30.5-15.4 48.4-20.8 75.8-23 22.9-1.8 47.6 1.2 69.7 8.6 5.8 1.9 20 8.2 31.5 13.9 11.8 5.9 26.2 12.2 33 14.4 38.1 12.7 79.9 13.7 118.1 3 13.8-3.8 21.6-7.1 44-18.1 28.8-14.3 47.2-19.7 73.7-21.8 23-1.9 47.3 1.2 70.2 8.8 6.1 2 18.4 7.4 27.5 12 28.6 14.5 45.9 20.6 70.5 24.9 14.5 2.5 45 2.3 60.5-.5 6.3-1.1 11.7-1.8 11.9-1.6.9.8-36.4 40.9-45 48.4l-5.7 4.9-11.3-1c-25.6-2.2-44.3-7.8-71.9-21.5-22.5-11.1-32.9-15.3-48.4-19.4-16.4-4.3-30.1-6-48.9-6-35.7 0-58.2 5.7-96.2 24.5-11.5 5.7-25.8 12-31.6 13.9-37.1 12.2-77.2 12.3-114.9 0-5.9-1.8-19.3-7.7-29.9-13-22.2-11-32.9-15.3-48.5-19.4-16.6-4.4-30.1-6-49.2-6-35.6.1-60 6.3-96 24.6-29.5 15-45.7 20.1-71.6 22.5-37.1 3.5-73.1-3.9-103.8-21.1-20.5-11.5-40.5-19.2-60.3-23.2-10.1-2.1-14-2.3-39.2-2.3-25.2.1-29 .3-38.4 2.3-20.3 4.5-36.2 10.8-64.1 25.6-9 4.8-24.4 11.2-29.5 12.2-2.8.5-3.9-.4-17.1-14.3-23.9-25.2-25-26.5-22.8-27.4 1-.4 4.4-.8 7.4-.8 7.8-.1 23.1-2.6 35.2-5.6 14.5-3.7 28-9.2 44.2-18.1 28.1-15.3 43.4-20.1 75.6-23.8 7-.8 35.7.4 45 1.9zm-16.2 63.5c21.7 1.9 41 7.4 59.5 17l22 11.3c15.9 8.2 35.3 14.3 54.2 17.1 42 6.1 83.9-.3 117.8-18 20.6-10.8 30.8-15.5 41.2-18.9 35.4-11.9 76.8-12 112.5-.5 5.2 1.7 19 7.8 30.5 13.5 11.6 5.6 25.4 11.9 30.8 13.9 34.7 12.9 76.7 15.3 114.2 6.6 15.2-3.5 27.1-8.2 49-19 12.1-6 26.7-12.5 32.5-14.4 36.1-12 77.1-12.2 113-.6 5.2 1.7 19 7.8 30.5 13.5 11.6 5.7 25.1 11.9 30.1 13.9 10.9 4.1 30.6 9.2 39.5 10.2 3.5.3 7 1 7.7 1.4 2.3 1.2-41.8 38-45.4 38-1.1 0-11.4-4.7-22.9-10.4-42.8-21.1-64.4-26.4-104.3-25.3-34.1.9-56.9 7-88 23.3-28.5 14.9-48.9 21.1-77.1 23.4-9.7.8-17.3.8-27 0-27.7-2.2-45.7-7.5-74.7-21.9-41.4-20.6-63-25.8-102.9-24.8-34.6.9-54.2 6.1-89.2 23.9-11.6 5.9-25.6 12.3-31.1 14.2-31.5 10.9-70.6 12.5-104.2 4.1-15.5-3.9-27-8.6-44.5-18.4-21.2-11.8-42.9-19.4-64.3-22.6-14-2.1-48-2.1-61.5 0-16.3 2.5-32.1 7-45.6 13.2-4 1.8-7.9 3.3-8.5 3.3-1.8 0-33.6-27.5-33.6-29 0-.3 2.4-1.4 5.3-2.3 5.2-1.7 15.8-6.8 36.7-18 27.9-14.9 61.4-20.9 97.8-17.7zm9.7 66.5c17.6 2.9 34 8.4 49 16.4l17.5 9.4c15.9 8.5 37.2 15.3 57.2 18.2 14.5 2.1 46.1 2.1 60.3 0 23.7-3.5 36.9-8.1 65.1-22.5 30.2-15.5 47.8-20.8 76-23.1 23.7-1.9 48.3 1.1 71.3 8.7 5.8 1.9 19.2 7.8 29.6 13.1 10.5 5.3 22.9 11.1 27.8 13 35.8 13.8 80.3 16.2 119.1 6.4 16.1-4.1 28.7-9.2 49.2-19.6 26.7-13.7 45.6-19.3 72.8-21.6 30.1-2.5 63.1 3.4 89.6 16 12.7 6 29.5 15 29.8 16 .3.8-13.8 10.9-29.8 21.4l-8.5 5.6-10-2.8c-19.9-5.7-27.7-6.6-55-6.6-23.5.1-25.8.2-38 2.8-19.4 4.2-33.1 9.1-52.5 18.9-19.5 9.9-31.2 14.8-43.3 18.3-34.3 9.9-73.8 9.1-107.7-2.1-5.8-1.9-20.4-8.3-32.5-14.4-36.3-18-54.5-22.8-89.5-23.7-40.4-1-63.1 4.5-103.5 25.2-29 14.8-44.7 19.5-71.6 21.6-35.8 2.7-68.4-3.5-95.9-18.1-46.1-24.5-63.3-29.2-107.7-29.1h-23.2l-8.8-6.1c-14.9-10.3-38.3-27.9-38.3-28.9 0-1.3 2.4-2.3 14.1-6.2 11.3-3.8 23.1-6.3 36.2-7.7 11.3-1.2 40.3-.4 51.2 1.5zm-8 63.5c25.5 2.5 46.1 9.4 72.3 24.3 15.6 9 34.6 15.9 54.2 19.9 10.3 2.1 14.2 2.3 38.5 2.3 24.2 0 28.2-.2 38.3-2.3 18.9-3.8 32-8.7 54.8-20.3 31.5-16.1 49.1-21.6 77.6-24 10.4-.9 17-.9 27.9 0 27.9 2.3 45.9 7.7 76.4 23.1 35.9 18.1 59.6 24 95.5 24 34.4-.1 59.1-6.4 94.2-24 30.4-15.3 48.1-20.7 76-23.1 10.3-.9 17.1-.9 27.7 0 14 1.1 28.9 3.6 30.4 5.1 1.8 1.6-46.1 27.2-74.8 40.1-46 20.5-98.5 38.2-142.8 48-16.2 3.5-23 3.5-41.1-.2-16.7-3.5-29.9-8.4-53.1-20-12.1-6-26.7-12.4-32.5-14.3-35.5-11.7-77.1-13.1-113.1-3.6-17.1 4.4-25.6 8-54.1 22.8-13.8 7.1-32.3 13.9-40.8 14.9-5 .6-15-1.6-42-9.2-58.6-16.4-117.9-41.5-172.6-72.9-18.6-10.6-19.7-11.6-12.3-11.6 3 0 9.9.5 15.4 1zm373.5 65.1c25.4 2.3 44.3 8.1 72.5 22.4 11 5.5 23.6 11.3 28 12.9 4.4 1.5 8.4 3.1 8.8 3.6 1.5 1.3-35.1 5.3-65.8 7.1-24.7 1.4-81.3.6-104.5-1.6-27-2.5-65.9-7.7-68.2-9.1-.4-.3 9-5.5 20.9-11.5 40.8-20.9 70.1-27.4 108.3-23.8zM180.5 727.2c-5.7 4.5-5.5-.3-5.5 114.2v105.5l5.8 3.4c15.3 9.3 33.6 17 49.7 21 17.3 4.3 24.3 5.2 42 5.2 21-.1 34-2.3 53.3-9.1l7.2-2.6v-17.5c0-13.8-.3-18-1.6-20.4-3-5.8-3.8-5.9-54.4-5.9h-46v-94l-1.2-96.5c-2.2-4.9-4.9-5.5-26.6-5.5-18.9 0-20.1.1-22.7 2.2zm192-1.3c-3.4 1.5-7.3 6.4-8.4 10.6-.8 2.8-1.1 35.9-1.1 106.9 0 97.5.1 102.8 1.8 102.3.9-.3 6.2-2.4 11.7-4.8 10-4.2 28-9.2 37.4-10.5l5.1-.7v-96.4c0-95.7 0-96.6-2.1-100.2-4.1-7.2-5.3-7.6-24.9-7.8-9.6-.1-18.4.2-19.5.6zm387.2.2c-4.8 2.8-4.7 1.6-4.7 83.9l1.1 86.7c1.2 10.9 4.8 24.1 8.5 31.5 2.3 4.5 2.8 4.9 5.2 4.4 17.9-3.9 26.7-4.9 44.7-5l19-.1-6.1-5.7c-7.3-6.9-12.9-16.7-14.9-26.5-1.2-5.6-1.5-21.3-1.5-87 0-71.5-.2-80.3-1.6-81.7-1.3-1.4-5-1.6-24.7-1.6-13.9 0-23.9.5-25 1.1zm157.2 1.8l-2.9 2.9v80.4c0 68.9-.2 81.2-1.5 86.3-4.9 19-17 31-37.5 37.2-.8.2 4 2.6 10.5 5.2 6.6 2.7 20.6 8.9 31.2 13.9 10.5 5 20.3 9.4 21.6 9.7 2 .5 3.2-.3 7.2-4.7 13.9-15.3 21.2-33.9 23.5-59.8 1.2-14.5 1.3-160 0-165.5-.5-2.4-2-4.9-3.7-6.2-2.7-2.2-3.5-2.3-24.1-2.3h-21.4l-2.9 2.9zm111.3-1.7c-.9.9-1.2 30.2-1.2 125.5l1.4 124.3c.8 0 6.6-.9 12.9-2 13.6-2.3 28.2-6.8 35.5-11l5.2-3V847.2c0-110-.1-112.8-2-115.9-3.5-5.9-5.6-6.3-29.3-6.3-15.2 0-21.6.3-22.5 1.2zm315 0c-2.5 2.5-.9 6.4 9.7 23.1l43.8 70.2 32.9 53-2.1 59-1.8 60.2c.3.6 1.1 1.4 1.8 1.7 1.7.6 12-2.8 22.5-7.4 7.7-3.4 26.7-13.7 27.4-14.9.2-.3 1.5-22.4 2.7-49.1l2.4-48.4 7.6-12.6 27.4-44.5c50.2-81.2 52.8-85.7 51.9-88.4l-.9-2.6-24.7-.3-24.6-.2-28.2 45.2-30.2 47c-2.3 2.1-6.6 2.3-8.9.5-1.8-1.3-8-11-36.3-56.2l-21.3-33.3-2.4-3.2h-23.8c-17.1 0-24 .3-24.9 1.2z"/></svg>
