<svg xmlns="http://www.w3.org/2000/svg" fill="none" viewBox="0 0 853 115"><path fill="#42434E" d="M214.349 1.64959c-10.473 1.91883-19.188 6.15625-25.424 12.39241-12.473 12.3925-13.192 32.6201-1.599 43.8133 4.877 4.7971 12.552 8.6347 25.264 12.5523 5.917 1.9189 12.073 4.0776 13.592 4.7971 5.357 2.7184 6.076 7.6753 1.839 11.6729-2.798 2.6384-7.595 3.7577-13.912 3.3579-6.716-.4797-11.672-3.1181-13.911-7.2755l-1.599-2.9582h-14.951c-8.955 0-15.111.3198-15.431.7995-.799 1.3592 1.12 9.7541 3.278 14.1514 4.158 8.6343 12.713 14.7113 25.025 17.8293 9.274 2.318 27.184 2.398 36.218.08 20.707-5.357 31.181-17.3497 31.101-35.9783 0-6.7959-.24-7.9951-2.478-12.5524-1.36-2.7982-3.838-6.1562-5.437-7.5154-4.397-3.6777-12.952-7.5154-23.985-10.7934-16.47-4.877-19.349-6.6359-19.349-11.9927 0-5.3567 4.797-8.3948 13.352-8.3948 7.436 0 11.993 2.2386 14.231 6.9557l1.52 3.4379h29.502l-.48-4.2374c-1.439-14.0714-10.794-23.90541-26.944-28.54258-6.876-1.91883-22.546-2.798295-29.422-1.59903Zm578.687.39959c-13.751 2.55844-23.186 7.35551-32.54 16.78972-5.517 5.5966-7.116 7.9152-10.554 14.871-5.356 11.1132-7.275 19.8279-7.275 33.3396 0 16.47 3.038 24.8648 12.312 34.2195 9.515 9.514 19.428 13.112 36.058 13.112 14.711.08 23.506-2.399 33.98-9.195 8.714-5.6763 14.071-11.9924 18.388-21.4267 2.239-5.1169 4.158-12.1526 3.358-12.9521-.239-.2398-7.355-.3997-15.75-.3997h-15.271l-1.839 4.0775c-2.078 4.4773-6.875 9.5142-11.193 11.6729-2.078 1.0393-4.717 1.4391-9.434 1.4391-6.076 0-6.716-.1599-9.594-2.4785-6.236-5.0369-8.635-13.192-7.356-24.9448 1.999-17.9091 10.874-30.2215 23.346-32.4602 10.394-1.9188 20.548 5.9964 20.548 16.0702v3.4379h31.98v-5.4367c0-11.0332-3.838-20.2276-11.673-27.9029-11.113-10.95335-28.462-15.27072-47.491-11.83282Z"/><path fill="#E96997" d="M43.4935 38.6669C32.1404 58.095 17.6692 82.72 11.433 93.3535L0 112.782h32.3003L44.293 91.1948h15.3506c8.4748 0 15.4306.16 15.4306.3199 0 .2398-.8795 4.4772-1.9988 9.5943-1.1193 5.117-1.9988 9.754-1.9988 10.473 0 1.04 4.6372 1.2 38.2964 1.2 35.818 0 38.377-.08 38.777-1.439.239-.72 1.359-5.837 2.478-11.3535 1.119-5.5166 2.239-10.6335 2.479-11.433.399-1.2793-1.12-1.3592-23.986-1.3592-13.432 0-24.465-.2399-24.465-.5597 0-.2398.8-4.2374 1.759-8.7946l1.679-8.235h46.132l.4-1.8389c1.279-5.2767 4.397-20.0677 4.397-20.7073 0-.3198-10.234-.6396-22.786-.6396-14.072 0-22.786-.3198-22.786-.7995 0-.3998.799-4.3174 1.679-8.7147l1.759-8.0751 24.465-.1599 24.465-.2399 2.558-11.5929c1.439-6.3961 2.559-12.07262 2.559-12.63228.08-.71956-11.114-.95941-53.248-.95941H64.2808L43.4935 38.6669Zm44.9325-9.6741c-.2398 1.0394-2.1586 9.914-4.2374 19.8279-1.9988 9.914-3.9975 18.3088-4.2374 18.6286-.3198.3198-5.5166.4797-11.513.3998l-10.9533-.2399L68.758 47.3816l11.2732-20.1477h4.3973c4.1574 0 4.3973.0799 3.9975 1.7589Z"/><path fill="#42434E" d="M287.425 4.60768c-.24.79951-1.359 5.75652-2.479 11.03322-1.119 5.2768-2.158 10.3937-2.398 11.3531l-.4 1.8389h15.191c8.315 0 15.19.1599 15.19.3998 0 .3997-8.155 39.1761-10.073 47.9707-1.679 7.5954-3.119 14.4712-5.117 23.9856-.96 4.397-1.839 8.794-2.079 9.754l-.32 1.839h32.62l.88-3.758c.399-2.159 4.077-19.3482 8.075-38.2167 3.997-18.9484 7.595-36.058 8.075-38.1367l.879-3.8377 15.271-.1599 15.271-.2399 2.158-9.9139c1.2-5.4367 2.399-11.11323 2.719-12.55235l.479-2.71834h-46.771c-43.813 0-46.772.07995-47.171 1.35917Zm105.615.39975c-.24 1.03937-5.356 24.86487-11.353 53.00767-5.996 28.1428-11.113 51.9679-11.353 52.9279l-.4 1.839h16.87c9.274 0 16.87-.16 16.87-.4 0-.48 6.876-32.94 8.075-38.2168l.879-3.7577h18.389c17.11 0 18.309.08 17.909 1.3592-.639 2.3186-8.475 39.3363-8.475 40.2153 0 .48 5.997.8 16.63.8h16.55l9.834-46.2121c5.437-25.3446 10.634-49.9695 11.673-54.7666l1.919-8.55479-16.87.1599-16.79.23985-3.358 15.59054c-1.839 8.5547-3.837 17.8291-4.397 20.5474l-1.039 5.0369h-36.698l.4-2.2386c1.119-4.877 3.038-13.8316 4.557-20.9472.959-4.1575 1.999-9.4343 2.479-11.5929.399-2.23867.959-4.63721 1.199-5.43672.4-1.27922-.72-1.35917-16.31-1.35917-16.71 0-16.79 0-17.19 1.75892Zm120.247 1.99879c-.48 2.15868-1.759 8.15498-2.878 13.43178-2.079 9.834-3.358 15.8304-5.517 25.5844-.64 3.0382-3.998 18.5487-7.276 34.379-3.358 15.8304-6.316 29.5816-6.556 30.6216l-.399 1.759 39.016-.16 39.016-.24 2.638-11.993c1.44-6.6357 2.559-12.2323 2.639-12.632 0-.3199-10.074-.5597-22.387-.5597-13.831 0-22.386-.3198-22.386-.7995 0-.3998.8-4.3174 1.679-8.7947l1.759-7.9951h21.027c19.268 0 21.027-.0799 21.427-1.4391.64-1.9988 4.477-20.1477 4.477-21.0272 0-.3997-8.714-.7195-20.867-.7195h-20.947l.48-3.0382c.319-1.599 1.119-5.5966 1.838-8.7946l1.28-5.7565h45.172l.48-2.6384c.24-1.3592 1.359-6.7958 2.478-12.0726 1.12-5.19686 2.079-9.75407 2.079-10.15383 0-.39976-16.39-.71956-38.696-.71956h-38.697l-.879 3.75771Zm88.346-2.39854c-.24.79951-1.359 5.75652-2.479 11.03322-1.119 5.2768-2.158 10.3937-2.398 11.3531l-.4 1.8389h15.191c8.315 0 15.191.1599 15.191.3198 0 .3198-15.671 74.5943-17.19 81.7903l-.4 1.839h16.39c9.035 0 16.39-.16 16.39-.32 0-.24 2.879-14.0715 10.874-51.6486 4.317-20.3076 4.957-23.2658 5.916-27.7431l.96-4.2374 15.27-.1599 15.191-.2399 2.638-11.9926c1.439-6.63599 2.639-12.23258 2.639-12.63233.08-.31981-20.947-.55966-46.612-.55966-43.813 0-46.771.07995-47.171 1.35917Zm105.136 2.39854c-.48 2.15868-1.759 8.15498-2.878 13.43178-2.079 9.834-3.358 15.8304-5.517 25.5844-.64 3.0382-3.998 18.5487-7.276 34.379-3.358 15.8304-6.316 29.5816-6.556 30.5416l-.399 1.839h16.47c9.034 0 16.469-.16 16.469-.32s.88-4.557 1.999-9.754c1.12-5.277 2.399-11.1134 2.799-13.1122.399-1.9988 1.439-7.0357 2.398-11.1931.88-4.1575 2.718-12.6323 3.998-18.7886 1.279-6.1562 3.038-14.6311 3.997-18.7885.88-4.1575 1.999-9.1944 2.399-11.1932.719-3.9176 4.557-21.66677 5.197-24.62497l.399-1.75892h-32.62l-.879 3.75771Z"/></svg>
