<svg xmlns="http://www.w3.org/2000/svg" viewBox="0 0 666.29 167.85"  fill="#fff"><path d="M327.89 75.41a64.83 64.83 0 0 1 7.2.38A19.29 19.29 0 0 1 326 59.38V4.25C326 2 326 0 323.55 0h-15.06A3.77 3.77 0 0 0 305 4v56.42a38.24 38.24 0 0 0 4.4 17.42 68.65 68.65 0 0 1 18.48-2.44M385 60.42V4.25A4.26 4.26 0 0 0 380.75 0h-13.22A3.85 3.85 0 0 0 364 4.14v55.48a18.15 18.15 0 0 1-15.88 18.61c9.53 2.93 17.22 7.63 25.66 11.15 8.08-7 11.22-17.46 11.22-29m21 33.32c10.5-.87 17.5-3.48 21-6.34V5.12A5.14 5.14 0 0 0 421.88 0h-13.75A2.13 2.13 0 0 0 406 2.13zm-258-4.35v-11.8a4.44 4.44 0 0 0-4-4.55h-34V4.24A4.27 4.27 0 0 0 106 0H93.41A4.49 4.49 0 0 0 89 4.25V82.8a66.65 66.65 0 0 0 34.71 11.26A59.4 59.4 0 0 0 148 89.35m32-84.23A6.32 6.32 0 0 0 174.58 0h-10.5A5.94 5.94 0 0 0 159 5.12V82.8a63.55 63.55 0 0 1 21-6.45zM666.29 160.4v6.23a67.75 67.75 0 0 1-21.56-8.08 62.29 62.29 0 0 0-19.58-7.43 86.65 86.65 0 0 0-26.36-.69 61.39 61.39 0 0 0-21.5 6.73l-2.48 1.39a74.23 74.23 0 0 1-71.87 0 67.68 67.68 0 0 0-65.88 0 74.25 74.25 0 0 1-71.88 0 67.68 67.68 0 0 0-65.88 0 67.93 67.93 0 0 1-35.92 9.28 68.22 68.22 0 0 1-35.91-9.28 61.71 61.71 0 0 0-32.93-8.55 61.68 61.68 0 0 0-32.92 8.55 68 68 0 0 1-36 9.28 67.93 67.93 0 0 1-35.92-9.28A61.71 61.71 0 0 0 56.82 150a61.68 61.68 0 0 0-32.92 8.55A69.55 69.55 0 0 1 0 167v-6.2a64.49 64.49 0 0 0 20.9-7.61 68 68 0 0 1 36-9.28 68 68 0 0 1 35.92 9.28 61.68 61.68 0 0 0 32.92 8.55 61.68 61.68 0 0 0 32.92-8.55 68 68 0 0 1 35.92-9.28 68.23 68.23 0 0 1 35.92 9.28 61.69 61.69 0 0 0 32.92 8.55 61.69 61.69 0 0 0 32.93-8.55 74.18 74.18 0 0 1 71.87 0 67.68 67.68 0 0 0 65.88 0 74.26 74.26 0 0 1 71.88 0 67.68 67.68 0 0 0 65.88 0l5.47-2.84a68.33 68.33 0 0 1 29.32-6.35q2.58-.15 5.16-.09a68.16 68.16 0 0 1 35.92 9.29 60.82 60.82 0 0 0 18.56 7.21m-15.81-58.18a68.16 68.16 0 0 0-35.92-9.29L610 93h-2.26a66.8 66.8 0 0 0-30.45 6.65q-2.8 1.35-5.48 3a66.45 66.45 0 0 1-65.9 0 72.92 72.92 0 0 0-71.88 0 66.55 66.55 0 0 1-65.9 0 72.89 72.89 0 0 0-71.89 0 76.11 76.11 0 0 1-7.14 3.35l-13.94-19.3a48 48 0 0 0 18-36.89C293 22.64 270.4.74 242.72.91s-50 22.33-49.8 49.51a48.59 48.59 0 0 0 7.77 26c23.56 3.18 27.67 16.63 55.76 17.45l9.3 17.11h-2.23a59.19 59.19 0 0 1-32.92-9 65.36 65.36 0 0 0-35.92-9.8 65.2 65.2 0 0 0-35.92 9.8 59.11 59.11 0 0 1-32.92 9 59.19 59.19 0 0 1-32.92-9A65.2 65.2 0 0 0 57 92.17a65.2 65.2 0 0 0-36.1 10.19A62.5 62.5 0 0 1 0 110.43V117a67.12 67.12 0 0 0 23.9-9 59.11 59.11 0 0 1 32.92-9 59.22 59.22 0 0 1 32.93 9 65.17 65.17 0 0 0 35.92 9.8 65.16 65.16 0 0 0 35.91-9.8 59.15 59.15 0 0 1 32.93-9 59.19 59.19 0 0 1 32.92 9 65.4 65.4 0 0 0 35.95 9.8 65.17 65.17 0 0 0 35.92-9.8 64.55 64.55 0 0 1 65.88 0 70.84 70.84 0 0 0 71.88 0 64.55 64.55 0 0 1 65.88 0 70.82 70.82 0 0 0 71.87 0l2.48-1.41a61.79 61.79 0 0 1 18.22-6.59 96.88 96.88 0 0 1 27.42-.57 62.41 62.41 0 0 1 24.55 8.19 67.7 67.7 0 0 0 18.81 7.5v-6.3a60.72 60.72 0 0 1-15.81-6.56M243 78.31a29.48 29.48 0 0 1 0-58.92A29.93 29.93 0 0 1 272.42 49 29.45 29.45 0 0 1 243 78.31m423.29 55.44v6.3a67.73 67.73 0 0 1-18.81-7.5 62.31 62.31 0 0 0-19-7.31c-8.9-1.82-18.9-1.83-27.93-1a61.7 61.7 0 0 0-23.28 6.92 54.37 54.37 0 0 0-2.48 1.39 74.23 74.23 0 0 1-71.87 0 67.68 67.68 0 0 0-65.88 0 74.25 74.25 0 0 1-71.88 0 67.68 67.68 0 0 0-65.88 0 67.92 67.92 0 0 1-35.92 9.28 68.16 68.16 0 0 1-35.95-9.28 61.68 61.68 0 0 0-32.9-8.55 61.72 61.72 0 0 0-32.93 8.55 67.91 67.91 0 0 1-35.91 9.28 67.93 67.93 0 0 1-35.92-9.28A61.71 61.71 0 0 0 56.82 124a61.68 61.68 0 0 0-32.92 8.55A69.64 69.64 0 0 1 0 141v-6.2a64.56 64.56 0 0 0 20.9-7.65 68 68 0 0 1 36-9.28 68 68 0 0 1 35.92 9.28 61.68 61.68 0 0 0 32.92 8.55 61.68 61.68 0 0 0 32.92-8.55 68 68 0 0 1 35.92-9.28 68.24 68.24 0 0 1 35.92 9.28 61.69 61.69 0 0 0 32.92 8.55 61.69 61.69 0 0 0 32.93-8.55 74.18 74.18 0 0 1 71.87 0 67.68 67.68 0 0 0 65.88 0 74.26 74.26 0 0 1 71.88 0 67.68 67.68 0 0 0 65.88 0 60.71 60.71 0 0 1 5.47-2.84 68.24 68.24 0 0 1 30.41-6.31h1.37q2.72-.16 5.45-.1a68.18 68.18 0 0 1 35.92 9.29 60.78 60.78 0 0 0 15.81 6.56"/><path d="M448.24 97.1V5.68a5.14 5.14 0 0 1 5.14-5.14h52.7a5.14 5.14 0 0 1 5.14 5.14v6.39a5.14 5.14 0 0 1-5.14 5.14h-35.73a3.16 3.16 0 0 0-3.16 3.16v12.5a3.16 3.16 0 0 0 3.16 3.13h34.8a5.14 5.14 0 0 1 5.14 5.14v6.39a5.14 5.14 0 0 1-5.14 5.14h-34.37a3.6 3.6 0 0 0-3.6 3.59L467 93.7c0 5-18.79 3.58-18.79 3.4m127.87-41.72l-1.73 35.74a1.36 1.36 0 0 1-.72 1.13l-3.12 1.77a65.6 65.6 0 0 1-14.27 6.07 1.37 1.37 0 0 1-1.73-1.38l1.57-43.77L523.65 3a2 2 0 0 1 1.69-3h16a2 2 0 0 1 1.66.93l20.78 32.82a2.73 2.73 0 0 0 4.65 0L589 .94a2 2 0 0 1 1.67-.94h16a2 2 0 0 1 1.69 3z"/></svg>
