<svg xmlns="http://www.w3.org/2000/svg" fill="none" viewBox="0 0 833 394"><path fill="#010101" fill-rule="evenodd" d="M123.5.5c20.352.283 39.018 6.1163 56 17.5 14.724 9.3912 27.558 20.891 38.5 34.5 8.08 10.243 11.747 21.91 11 35-.725 2.449-1.725 4.783-3 7-9.2 10.261-14.533 22.261-16 36-.5 30.665-.667 61.332-.5 92 4.346-.166 8.679.001 13 .5 1.167.5 2 1.333 2.5 2.5 8.158 35.631 16.158 71.298 24 107 8.128-35.638 16.128-71.305 24-107l2.5-2.5c10.667-.667 21.333-.667 32 0l1.5 1.5c.667 55.667.667 111.333 0 167l-1.5 1.5c-8 .667-16 .667-24 0l-1.5-1.5c-.167-32.672-.667-65.338-1.5-98-7.5 32.667-15 65.333-22.5 98l-1.5 1.5c-5 .667-10 .667-15 0-1.201-.903-2.035-2.069-2.5-3.5-6.857-32.092-14.023-64.092-21.5-96-.833 32.662-1.333 65.328-1.5 98l-1.5 1.5c-8 .667-16 .667-24 0-.525-.692-1.192-1.192-2-1.5-.833-95.998-1.333-191.998-1.5-288-1.255-6.343-4.421-11.51-9.5-15.5-15.798-7.978-30.298-17.811-43.5-29.5-7.697-7.707-12.864-16.874-15.5-27.5.333-.8333.667-1.6667 1-2.5 3.205 2.1016 6.538 3.9349 10 5.5 11.19 2.922 22.523 5.255 34 7 20.247 5.537 37.414 16.037 51.5 31.5 3.435 4.801 5.601 10.134 6.5 16 1.34-1.188 2.007-2.688 2-4.5-1.996-11.825-6.83-22.325-14.5-31.5-18.452-21.4823-41.285-36.3156-68.5-44.5-22.625-2.0424-32.125 8.1243-28.5 30.5 4.295 11.577 11.295 21.244 21 29 .684 1.284.517 2.451-.5 3.5-2 .667-4 .667-6 0-11.053-6.698-20.72-15.031-29-25-1.293-.49-2.627-.657-4-.5 2.946 11.456 9.279 20.622 19 27.5 13.669 8.452 28.336 14.785 44 19 11.882 4.09 17.215 12.423 16 25-.397 15.053-2.231 29.887-5.5 44.5-1.471 4.081-3.138 8.081-5 12-20.458 24.794-41.292 49.294-62.5 73.5-14.313 11.328-30.313 14.328-48 9-18.0258-8.264-32.8591-20.431-44.50003-36.5-7.4559-13.923-8.4559-28.256-3-43C35.8094 121.709 68.809 67.709 103 14.5c5.291-7.0521 12.125-11.7188 20.5-14Z" clip-rule="evenodd"/><path fill="#000" fill-rule="evenodd" d="M357.5 222.5c11.005-.167 22.005 0 33 .5 12.616.953 20.782 7.453 24.5 19.5 1.633 41.634 1.966 83.301 1 125-1.571 14.328-9.404 22.828-23.5 25.5-12.667.667-25.333.667-38 0-13.288-2.288-20.788-10.121-22.5-23.5-.667-40.667-.667-81.333 0-122 1.927-15.187 10.427-23.52 25.5-25Zm83 0c8.34-.166 16.673 0 25 .5l1.5 1.5c.5 46.999.667 93.999.5 141 17.91-.326 35.743.008 53.5 1 .667 8.333.667 16.667 0 25l-1.5 1.5c-26.333.667-52.667.667-79 0l-1.5-1.5c-.667-55.667-.667-111.333 0-167 .717-.544 1.217-1.211 1.5-2Zm122 0c11.005-.167 22.005 0 33 .5 12.616.953 20.782 7.453 24.5 19.5 1.633 41.634 1.966 83.301 1 125-1.571 14.328-9.404 22.828-23.5 25.5-12.667.667-25.333.667-38 0-13.288-2.288-20.788-10.121-22.5-23.5-.667-40.667-.667-81.333 0-122 1.927-15.187 10.427-23.52 25.5-25Zm83 0c8.34-.166 16.673 0 25 .5l1.5 1.5c.333 22.333.667 44.667 1 67a3116.0788 3116.0788 0 0 0 33-67c.75-.626 1.584-1.126 2.5-1.5 8.667-.667 17.333-.667 26 0 2.198 1.878 2.364 4.045.5 6.5-11.697 24.228-23.531 48.395-35.5 72.5 12.904 29.547 25.904 59.047 39 88.5-.108.942-.441 1.775-1 2.5-9.333.667-18.667.667-28 0l-1.5-1.5c-8.953-21.533-18.286-42.867-28-64-2.079 4.493-4.412 8.826-7 13-.333 17-.667 34-1 51l-1.5 1.5c-8.333.667-16.667.667-25 0l-1.5-1.5c-.667-55.667-.667-111.333 0-167 .717-.544 1.217-1.211 1.5-2Zm128 0c11.005-.167 22.005 0 33 .5 12.616.953 20.782 7.453 24.5 19.5 1.633 41.634 1.966 83.301 1 125-1.571 14.328-9.404 22.828-23.5 25.5-12.667.667-25.333.667-38 0-13.288-2.288-20.788-10.121-22.5-23.5-.667-40.667-.667-81.333 0-122 1.927-15.187 10.427-23.52 25.5-25Z" clip-rule="evenodd"/><path fill="#FEFFFE" fill-rule="evenodd" d="M364.5 250.5c6.342-.166 12.675 0 19 .5 2.167.833 3.667 2.333 4.5 4.5.667 35.333.667 70.667 0 106-.833 1.5-2 2.667-3.5 3.5-7 .667-14 .667-21 0-1.5-.833-2.667-2-3.5-3.5-.667-35.333-.667-70.667 0-106 1.025-2.187 2.525-3.854 4.5-5Zm205 0c6.342-.166 12.675 0 19 .5 2.167.833 3.667 2.333 4.5 4.5.667 35.333.667 70.667 0 106-.833 1.5-2 2.667-3.5 3.5-7 .667-14 .667-21 0-1.5-.833-2.667-2-3.5-3.5-.667-35.333-.667-70.667 0-106 1.025-2.187 2.525-3.854 4.5-5Zm211 0c6.342-.166 12.675 0 19 .5 2.167.833 3.667 2.333 4.5 4.5.667 35.333.667 70.667 0 106-.833 1.5-2 2.667-3.5 3.5-7 .667-14 .667-21 0-1.5-.833-2.667-2-3.5-3.5-.667-35.333-.667-70.667 0-106 1.025-2.187 2.525-3.854 4.5-5Z" clip-rule="evenodd"/></svg>